HIERARCHY
ROOT Hips
{
	OFFSET	-0.0298	89.6394	74.4011
	CHANNELS 6 Xposition Yposition Zposition Zrotation Xrotation Yrotation
	JOINT Chest
	{
		OFFSET	0	16.383	0
		CHANNELS 3 Zrotation Xrotation Yrotation
		JOINT LeftCollar
		{
			OFFSET	3.81	32.766	-3.81
			CHANNELS 3 Zrotation Xrotation Yrotation
			JOINT LeftUpArm
			{
				OFFSET	14.5367	0	3.8951
				CHANNELS 3 Zrotation Xrotation Yrotation
				JOINT LeftLowArm
				{
					OFFSET	30.2895	0	0
					CHANNELS 3 Zrotation Xrotation Yrotation
					JOINT LeftHand
					{
						OFFSET	27.2415	0	0
						CHANNELS 3 Zrotation Xrotation Yrotation
						End Site
						{
							OFFSET	20.3835	0	0
						}
					}
				}
			}
		}
		JOINT Neck
		{
			OFFSET	0	32.766	0
			CHANNELS 3 Zrotation Xrotation Yrotation
			JOINT Head
			{
				OFFSET	0	19.6215	0
				CHANNELS 3 Zrotation Xrotation Yrotation
				End Site
				{
					OFFSET	0	0	10.16
				}
			}
		}
		JOINT RightCollar
		{
			OFFSET	-3.81	32.766	-3.81
			CHANNELS 3 Zrotation Xrotation Yrotation
			JOINT RightUpArm
			{
				OFFSET	-14.5367	0	3.8951
				CHANNELS 3 Zrotation Xrotation Yrotation
				JOINT RightLowArm
				{
					OFFSET	-30.2895	0	0
					CHANNELS 3 Zrotation Xrotation Yrotation
					JOINT RightHand
					{
						OFFSET	-27.2415	0	0
						CHANNELS 3 Zrotation Xrotation Yrotation
						End Site
						{
							OFFSET	-20.3835	0	0
						}
					}
				}
			}
		}
	}
	JOINT LeftUpLeg
	{
		OFFSET	9.3345	0	0
		CHANNELS 3 Zrotation Xrotation Yrotation
		JOINT LeftLowLeg
		{
			OFFSET	0	-45.5295	0
			CHANNELS 3 Zrotation Xrotation Yrotation
			JOINT LeftFoot
			{
				OFFSET	0	-44.196	0
				CHANNELS 3 Zrotation Xrotation Yrotation
				End Site
				{
					OFFSET	0	0	26.4795
				}
			}
		}
	}
	JOINT RightUpLeg
	{
		OFFSET	-9.3345	0	0
		CHANNELS 3 Zrotation Xrotation Yrotation
		JOINT RightLowLeg
		{
			OFFSET	0	-45.5295	0
			CHANNELS 3 Zrotation Xrotation Yrotation
			JOINT RightFoot
			{
				OFFSET	0	-44.196	0
				CHANNELS 3 Zrotation Xrotation Yrotation
				End Site
				{
					OFFSET	0	0	26.4795
				}
			}
		}
	}
}
MOTION
Frames:	8
Frame Time:	0.0166667
1.7746	89.6742	65.1245	-0.206192	2.58876	-1.91015	4.25038	-0.293797	-0.257003	-11.0136	10.2065	2.90867	-67.0171	18.8286	-24.146	-1.7509	-21.2206	-3.54205	-20.7613	30.453	20.0938	-2.20984	13.7528	3.42284	-2.41463	13.6769	3.70139	4.24649	10.0414	20.5553	63.0855	1.44626	-2.37396	1.74853	3.97825	30.6529	12.7449	-4.75561	-3.1349	2.4538	-0.0518922	0.9953	-3.54739	-2.74503	-2.05986	0.869958	0.520627	7.05619	-5.8137	-5.30337	-13.8056	-0.0121451	4.58633	0.727128	2.02892	-0.987727	-2.26574	
1.6773	89.6839	65.2934	-0.275432	2.54749	-1.76935	4.22164	-0.210798	-0.261802	-10.9223	10.1026	2.89563	-67.0191	18.9669	-24.1048	-1.84785	-21.2014	-3.62323	-20.8003	30.4701	20.2446	-2.19674	13.5696	3.63706	-2.32627	13.6135	3.77891	4.23408	9.98166	20.5019	63.0881	1.36288	-2.31736	1.85757	3.98843	30.6022	12.7162	-4.74862	-3.15655	2.35549	-0.0141987	0.7757	-3.27179	-2.50982	-2.03595	0.827552	0.230703	7.12746	-5.79033	-5.28276	-13.918	-0.0485581	4.55415	0.707233	2.11234	-0.913489	-2.26069	
1.7238	89.7009	65.5066	-0.366264	2.35192	-1.57222	4.2208	0.0168997	-0.3481	-10.9181	10.0219	2.88221	-66.9458	19.0688	-24.0756	-1.98469	-21.0563	-3.71808	-20.7954	30.5105	20.4244	-2.20299	13.4468	3.81287	-2.31801	13.4858	3.93918	4.2851	9.94173	20.3988	62.9708	1.38117	-2.21264	1.79216	3.95863	30.3907	12.7062	-4.76494	-3.10183	2.32271	0.176393	0.517802	-3.00905	-2.18871	-1.88598	0.732827	-0.139238	7.05292	-6.16745	-5.84484	-13.5311	0.127664	5.40205	0.244687	2.24511	-0.897617	-2.39189	
1.7026	89.7182	65.7915	-0.4403	2.1459	-1.46052	3.98933	0.301993	-0.385805	-10.7337	9.91985	2.88669	-66.8381	19.2532	-24.1256	-2.08865	-20.7715	-3.82859	-20.6738	30.2534	20.5079	-1.97458	13.3203	3.93163	-2.29638	13.4006	4.02198	4.33564	9.96359	20.3702	63.0208	1.42112	-2.01722	1.85952	3.87652	30.3434	12.5647	-4.72848	-3.14963	2.24316	0.499098	0.153906	-2.84468	-2.14017	-1.59241	0.7559	-0.359795	7.00354	-6.16392	-5.71467	-13.572	0.124561	5.57205	0.251689	2.27996	-0.954944	-2.42484	
1.8093	89.7273	66.0474	-0.581061	1.98615	-1.35411	3.82568	0.507285	-0.438017	-10.5032	9.86203	2.88466	-66.7152	19.4863	-24.3124	-2.19892	-20.4826	-3.9628	-20.8313	30.3094	21.0431	-1.97642	13.1851	4.32379	-2.29195	13.2301	4.38511	4.42286	10.0109	20.3527	63.0557	1.49247	-1.90755	1.79396	3.89076	30.3375	12.5005	-4.77283	-3.12434	2.36008	0.6809	0.00190013	-2.82954	-2.10831	-1.56646	0.76341	-0.443853	7.01421	-6.56647	-6.14712	-13.5153	0.491362	6.3033	0.061371	2.26826	-0.976617	-2.43565	
1.8299	89.7481	66.1272	-0.682406	1.92202	-1.27872	3.54143	0.62668	-0.459427	-10.3033	9.81242	2.86982	-66.4108	19.7634	-24.6901	-2.36884	-20.0181	-4.00002	-20.7685	29.9718	21.4098	-1.86135	13.0875	4.47537	-2.25887	13.1404	4.52954	4.56096	10.0363	20.3511	63.1782	1.50417	-1.78492	1.58515	4.08082	30.2905	12.5172	-4.89511	-3.0677	2.2392	0.804286	-0.341634	-2.52505	-2.1586	-1.35236	0.713162	-0.557615	7.08064	-6.81169	-6.59556	-13.6147	0.479335	7.20109	0.0763018	2.4761	-1.29495	-2.41922	
1.9483	89.7676	66.2066	-0.782973	1.85012	-1.156	3.28902	0.808357	-0.589459	-10.2459	9.68257	2.84648	-65.9985	19.9471	-24.9664	-2.42045	-19.9415	-3.85325	-20.7403	29.8636	21.5523	-1.96186	12.9099	4.72469	-2.3143	13.0217	4.71778	4.68464	9.99099	20.3952	62.9516	1.92586	-1.78971	1.69497	3.94153	30.397	12.6029	-5.16111	-2.96724	2.28015	0.867465	-0.512059	-2.41515	-2.1208	-1.36584	0.656265	-0.7038	7.14044	-7.11605	-7.16128	-13.9422	0.609997	8.36869	0.29959	2.53671	-1.73981	-2.44883	
1.9578	89.7849	66.2475	-0.909983	1.72993	-1.00746	3.13529	1.01481	-0.744917	-10.23	9.54706	2.72892	-65.5989	20.1715	-25.2201	-2.85574	-18.7449	-3.82844	-20.7408	30.0438	22.105	-2.08688	12.8444	4.84666	-2.36744	12.9336	4.8413	4.57306	10.0283	20.4438	63.1034	2.02592	-1.58609	1.69292	3.9253	30.4289	12.6477	-5.27859	-2.93837	2.11093	0.596525	-0.905649	-2.10455	-1.6984	-1.23624	0.67863	-0.787673	7.29499	-7.66024	-8.09893	-14.5327	0.880822	9.88556	0.657462	2.56382	-1.9924	-2.50311	
